<svg width="120" height="128" viewBox="0 0 120 128" fill="none" xmlns="http://www.w3.org/2000/svg">
<rect y="4" width="120" height="120" rx="15" fill="#121314"/>
<path d="M32.825 109.67V18.49H47.375V109.67H32.825ZM60.9171 110.64V95.896C64.5384 94.9907 67.6424 93.471 70.2291 91.337C72.8804 89.203 74.8851 86.584 76.2431 83.48C77.6658 80.3113 78.3771 76.787 78.3771 72.907V55.35C78.3771 51.3407 77.6658 47.7517 76.2431 44.583C74.8851 41.4143 72.9128 38.763 70.3261 36.629C67.7394 34.495 64.6031 32.9753 60.9171 32.07V17.52C67.6424 19.3307 73.3654 22.0467 78.0861 25.668C82.8714 29.2247 86.5251 33.525 89.0471 38.569C91.6338 43.613 92.9271 49.2067 92.9271 55.35V72.907C92.9271 82.2837 90.1464 90.2377 84.5851 96.769C79.0884 103.236 71.1991 107.859 60.9171 110.64Z" fill="white"/>
</svg>
