<svg width="201" height="82" viewBox="0 0 201 82" fill="none" xmlns="http://www.w3.org/2000/svg">
<path d="M200.333 2.66698C200.333 1.19421 199.139 0.000312934 197.666 0.000312805C196.193 0.000312676 194.999 1.19421 194.999 2.66698C194.999 4.13974 196.193 5.33364 197.666 5.33364C199.139 5.33364 200.333 4.13974 200.333 2.66698ZM5.33269 79.167C5.33269 77.6942 4.13878 76.5003 2.66602 76.5003C1.19325 76.5003 -0.000655999 77.6942 -0.000656128 79.167C-0.000656257 80.6397 1.19325 81.8336 2.66602 81.8336C4.13878 81.8336 5.33269 80.6397 5.33269 79.167ZM2.66602 40.917L2.35738 40.5236L2.16602 40.6737L2.16602 40.917L2.66602 40.917ZM51.416 2.66696L51.416 2.16696L51.2433 2.16696L51.1074 2.27359L51.416 2.66696ZM2.66602 40.917L2.16602 40.917L2.16602 79.167L2.66602 79.167L3.16602 79.167L3.16602 40.917L2.66602 40.917ZM197.666 2.66698L197.666 2.16698L100.166 2.16697L100.166 2.66697L100.166 3.16697L197.666 3.16698L197.666 2.66698ZM100.166 2.66697L100.166 2.16697L51.416 2.16696L51.416 2.66696L51.416 3.16696L100.166 3.16697L100.166 2.66697ZM51.416 2.66696L51.1074 2.27359L2.35738 40.5236L2.66602 40.917L2.97466 41.3103L51.7247 3.06034L51.416 2.66696Z" fill="black"/>
</svg>
