<svg width="36" height="36" viewBox="0 0 36 36" fill="none" xmlns="http://www.w3.org/2000/svg">
<path d="M-0.000651121 32.667C-0.000651121 34.1398 1.19326 35.3337 2.66602 35.3337C4.13877 35.3337 5.33268 34.1398 5.33268 32.667C5.33268 31.1942 4.13877 30.0003 2.66602 30.0003C1.19326 30.0003 -0.000651121 31.1942 -0.000651121 32.667ZM2.66602 17.667L2.31246 17.3134L2.16602 17.4599V17.667H2.66602ZM17.666 2.66699V2.16699H17.4589L17.3125 2.31344L17.666 2.66699ZM29.9993 2.66699C29.9993 4.13975 31.1933 5.33366 32.666 5.33366C34.1388 5.33366 35.3327 4.13975 35.3327 2.66699C35.3327 1.19423 34.1388 0.000325441 32.666 0.000325441C31.1933 0.000325441 29.9993 1.19423 29.9993 2.66699ZM2.66602 32.667H3.16602V17.667H2.66602H2.16602V32.667H2.66602ZM17.666 2.66699V3.16699H32.666V2.66699V2.16699H17.666V2.66699ZM17.666 2.66699L17.3125 2.31344L2.31246 17.3134L2.66602 17.667L3.01957 18.0205L18.0196 3.02055L17.666 2.66699Z" fill="black"/>
</svg>
