<svg width="36" height="31" viewBox="0 0 36 31" fill="none" xmlns="http://www.w3.org/2000/svg">
<path d="M35.3327 27.667C35.3327 26.1942 34.1388 25.0003 32.666 25.0003C31.1933 25.0003 29.9993 26.1942 29.9993 27.667C29.9993 29.1398 31.1933 30.3337 32.666 30.3337C34.1388 30.3337 35.3327 29.1398 35.3327 27.667ZM5.33268 27.667C5.33268 26.1942 4.13877 25.0003 2.66602 25.0003C1.19326 25.0003 -0.000652406 26.1942 -0.000652313 27.667C-0.000652221 29.1398 1.19326 30.3337 2.66602 30.3337C4.13878 30.3337 5.33268 29.1398 5.33268 27.667ZM32.666 27.667L32.666 27.167L2.66602 27.167L2.66602 27.667L2.66602 28.167L32.666 28.167L32.666 27.667Z" fill="white"/>
<path d="M35.3327 15.167C35.3327 13.6942 34.1388 12.5003 32.666 12.5003C31.1933 12.5003 29.9993 13.6942 29.9993 15.167C29.9993 16.6398 31.1933 17.8337 32.666 17.8337C34.1388 17.8337 35.3327 16.6398 35.3327 15.167ZM5.33268 15.167C5.33268 13.6942 4.13877 12.5003 2.66602 12.5003C1.19326 12.5003 -0.000652406 13.6942 -0.000652313 15.167C-0.000652221 16.6398 1.19326 17.8337 2.66602 17.8337C4.13878 17.8337 5.33268 16.6398 5.33268 15.167ZM32.666 15.167L32.666 14.667L2.66602 14.667L2.66602 15.167L2.66602 15.667L32.666 15.667L32.666 15.167Z" fill="white"/>
<path d="M35.3327 2.66699C35.3327 1.19423 34.1388 0.000325291 32.666 0.000325441C31.1933 0.000325592 29.9993 1.19423 29.9993 2.66699C29.9993 4.13975 31.1933 5.33366 32.666 5.33366C34.1388 5.33366 35.3327 4.13975 35.3327 2.66699ZM5.33268 2.66699C5.33268 1.19424 4.13877 0.000328351 2.66602 0.000328501C1.19326 0.000328651 -0.000652424 1.19424 -0.000652313 2.667C-0.000652203 4.13975 1.19326 5.33366 2.66602 5.33366C4.13878 5.33366 5.33268 4.13975 5.33268 2.66699ZM32.666 2.66699L32.666 2.16699L2.66602 2.167L2.66602 2.667L2.66602 3.167L32.666 3.16699L32.666 2.66699Z" fill="white"/>
</svg>
