<svg width="150" height="51" viewBox="0 0 150 51" fill="none" xmlns="http://www.w3.org/2000/svg">
<path d="M4.21094 37.6904L16.834 25.0619L4.21094 12.5303V37.6904Z" fill="#0069FF"/>
<path d="M15.7016 8.91235e-06H0L25.2879 25.1779L0.0178084 50.328H15.7186C19.0426 50.328 22.2171 49.014 24.5647 46.6811L46.1871 25.1702L24.5678 3.63911C22.2084 1.30408 19.0218 -0.00393933 15.7023 8.91235e-06M134.762 12.4891L128.369 37.6384H134.136L135.069 33.4549H142.916L143.859 37.6384H149.63L143.285 12.4883H134.758L134.762 12.4891ZM136.196 28.4702L138.501 18.2334H139.529L141.816 28.4694L136.196 28.4702ZM60.025 12.5642L58.4377 26.855C58.4377 26.9015 58.4199 26.9681 58.4199 27.0161C58.3046 28.1264 58.1288 29.1322 57.7966 30.5971C57.3909 32.3741 56.3906 32.9385 54.6422 32.9385V38.2787C57.9476 38.2787 61.7067 38.2787 62.9982 32.515C63.3601 30.8992 63.6274 29.2638 63.7988 27.6169V27.5983H63.8166L64.9122 17.604H68.3949V37.6399H74.0022V12.4813H60.0188V12.5665L60.0227 12.5626L60.025 12.5642ZM83.8975 27.3413H91.7347V22.4447H83.889V17.6109H92.4223V12.486H78.2786V37.636H92.4323V32.5103H83.899V27.3389L83.8975 27.3413ZM103.356 12.0632C97.9266 12.0632 94.9898 15.1743 94.9898 20.2319V29.8236C94.9898 34.8719 97.9165 37.9922 103.356 37.9922C108.795 37.9922 111.56 34.8812 111.56 29.8236V28.8H106.348L106.331 29.8236C106.331 31.9861 105.463 32.8982 103.337 32.8982C101.211 32.8982 100.28 31.9877 100.28 29.8236V20.2319C100.28 18.0701 101.213 17.1587 103.337 17.1587C105.461 17.1587 106.331 18.0701 106.331 20.2319V20.9473H111.562V20.2319C111.562 15.2022 108.785 12.0632 103.358 12.0632H103.356ZM129.67 12.4635H113.438V17.5877H118.765V37.6236H124.375V17.5877H129.67V12.4635Z" fill="black"/>
</svg>
