<svg width="77" height="77" viewBox="0 0 77 77" fill="none" xmlns="http://www.w3.org/2000/svg">
<path d="M2.66602 38.167H2.16602V38.3741L2.31246 38.5205L2.66602 38.167ZM-0.000651121 2.66699C-0.000651121 4.13975 1.19326 5.33366 2.66602 5.33366C4.13877 5.33366 5.33268 4.13975 5.33268 2.66699C5.33268 1.19423 4.13877 0.000325441 2.66602 0.000325441C1.19326 0.000325441 -0.000651121 1.19423 -0.000651121 2.66699ZM70.9994 73.667C70.9994 75.1398 72.1933 76.3337 73.666 76.3337C75.1388 76.3337 76.3327 75.1398 76.3327 73.667C76.3327 72.1942 75.1388 71.0003 73.666 71.0003C72.1933 71.0003 70.9994 72.1942 70.9994 73.667ZM38.166 73.667L37.8125 74.0205L37.9589 74.167H38.166V73.667ZM2.66602 38.167H3.16602V2.66699H2.66602H2.16602V38.167H2.66602ZM73.666 73.667V73.167H38.166V73.667V74.167H73.666V73.667ZM38.166 73.667L38.5196 73.3134L3.01957 37.8134L2.66602 38.167L2.31246 38.5205L37.8125 74.0205L38.166 73.667Z" fill="black"/>
</svg>
