<svg width="137" height="147" viewBox="0 0 137 147" fill="none" xmlns="http://www.w3.org/2000/svg">
<path d="M136.333 2.66699C136.333 1.19423 135.139 0.000320563 133.666 0.000320435C132.193 0.000320306 130.999 1.19423 130.999 2.66699C130.999 4.13976 132.193 5.33366 133.666 5.33366C135.139 5.33366 136.333 4.13976 136.333 2.66699ZM5.33304 143.667C5.33304 142.194 4.13913 141 2.66637 141C1.1936 141 -0.000305047 142.194 -0.000305176 143.667C-0.000305305 145.14 1.1936 146.334 2.66637 146.334C4.13913 146.334 5.33304 145.14 5.33304 143.667ZM2.66638 35.667L2.38311 35.255L2.16638 35.404L2.16638 35.667L2.66638 35.667ZM50.6663 2.66698L50.6663 2.16698L50.511 2.16698L50.3831 2.25497L50.6663 2.66698ZM2.66638 35.667L2.16638 35.667L2.16637 143.667L2.66637 143.667L3.16637 143.667L3.16638 35.667L2.66638 35.667ZM133.666 2.66699L133.666 2.16699L70.9163 2.16699L70.9163 2.66699L70.9163 3.16699L133.666 3.16699L133.666 2.66699ZM70.9163 2.66699L70.9163 2.16699L50.6663 2.16698L50.6663 2.66698L50.6663 3.16698L70.9163 3.16699L70.9163 2.66699ZM50.6663 2.66698L50.3831 2.25497L2.38311 35.255L2.66638 35.667L2.94964 36.079L50.9496 3.079L50.6663 2.66698Z" fill="black"/>
</svg>
