<svg width="336" height="24" viewBox="0 0 336 24" fill="none" xmlns="http://www.w3.org/2000/svg">
<path d="M-1.96906e-05 20.1341C-0.00428867 21.6069 1.18615 22.8042 2.65891 22.8085C4.13166 22.8128 5.32902 21.6223 5.33329 20.1496C5.33756 18.6768 4.14712 17.4795 2.67437 17.4752C1.20161 17.4709 0.00424929 18.6614 -1.96906e-05 20.1341ZM329.999 21.0907C329.994 22.5634 331.185 23.7608 332.658 23.765C334.13 23.7693 335.328 22.5789 335.332 21.1061C335.336 19.6334 334.146 18.436 332.673 18.4317C331.2 18.4275 330.003 19.6179 329.999 21.0907ZM235.606 20.8612L235.305 21.2603L235.438 21.3608L235.605 21.3612L235.606 20.8612ZM99.7257 20.3791L99.7245 20.8791L99.8908 20.8795L100.024 20.7802L99.7257 20.3791ZM208.947 0.739366L209.248 0.340284L209.115 0.239851L208.949 0.239368L208.947 0.739366ZM126.447 0.500229L126.449 0.000231337L126.283 -0.000250963L126.149 0.0990617L126.447 0.500229ZM235.606 20.8612L235.605 21.3612L332.664 21.5984L332.665 21.0984L332.666 20.5984L235.607 20.3612L235.606 20.8612ZM2.66664 20.1418L2.66541 20.6418L99.7245 20.8791L99.7257 20.3791L99.727 19.8791L2.66786 19.6418L2.66664 20.1418ZM167.697 0.619798L167.696 1.1198L208.946 1.23936L208.947 0.739366L208.949 0.239368L167.699 0.1198L167.697 0.619798ZM208.947 0.739366L208.646 1.13845L235.305 21.2603L235.606 20.8612L235.907 20.4621L209.248 0.340284L208.947 0.739366ZM99.7257 20.3791L100.024 20.7802L126.746 0.901397L126.447 0.500229L126.149 0.0990617L99.4273 19.9779L99.7257 20.3791ZM126.447 0.500229L126.446 1.00023L167.696 1.1198L167.697 0.619798L167.699 0.1198L126.449 0.000231337L126.447 0.500229Z" fill="black"/>
</svg>
