<svg width="343" height="73" viewBox="0 0 343 73" fill="none" xmlns="http://www.w3.org/2000/svg">
<path d="M-0.000656978 69.667C-0.000657107 71.1398 1.19325 72.3337 2.66601 72.3337C4.13877 72.3337 5.33268 71.1398 5.33268 69.667C5.33268 68.1943 4.13877 67.0004 2.66601 67.0004C1.19325 67.0004 -0.00065685 68.1943 -0.000656978 69.667ZM297.666 69.667L297.666 70.167L297.859 70.167L298.001 70.0378L297.666 69.667ZM336.999 2.66702C336.999 4.13978 338.193 5.33369 339.666 5.33369C341.139 5.33369 342.333 4.13978 342.333 2.66702C342.333 1.19426 341.139 0.000355032 339.666 0.000354903C338.193 0.000354774 336.999 1.19426 336.999 2.66702ZM339.666 31.667L340.001 32.0378L340.166 31.8889L340.166 31.667L339.666 31.667ZM150.166 69.667L150.166 69.167V69.167L150.166 69.667ZM339.666 2.66702L339.166 2.66702L339.166 31.667L339.666 31.667L340.166 31.667L340.166 2.66702L339.666 2.66702ZM297.666 69.667L298.001 70.0378L340.001 32.0378L339.666 31.667L339.331 31.2963L297.331 69.2963L297.666 69.667ZM2.66601 69.667L2.66601 70.167L150.166 70.167L150.166 69.667L150.166 69.167L2.66601 69.167L2.66601 69.667ZM150.166 69.667L150.166 70.167L297.666 70.167L297.666 69.667L297.666 69.167L150.166 69.167L150.166 69.667Z" fill="black"/>
</svg>
