<svg width="45" height="71" viewBox="0 0 45 71" fill="none" xmlns="http://www.w3.org/2000/svg">
<path d="M39.6693 2.667C39.6693 4.13975 40.8632 5.33366 42.3359 5.33366C43.8087 5.33366 45.0026 4.13976 45.0026 2.667C45.0026 1.19424 43.8087 0.000329242 42.3359 0.000329113C40.8632 0.000328984 39.6693 1.19424 39.6693 2.667ZM42.3359 31.667L42.6714 32.0378L42.8359 31.8889L42.8359 31.667L42.3359 31.667ZM42.3359 2.667L41.8359 2.667L41.8359 31.667L42.3359 31.667L42.8359 31.667L42.8359 2.667L42.3359 2.667ZM0.335932 69.667L0.671388 70.0378L42.6714 32.0378L42.3359 31.667L42.0005 31.2962L0.000474887 69.2962L0.335932 69.667Z" fill="black"/>
</svg>
