<svg width="232" height="36" viewBox="0 0 232 36" fill="none" xmlns="http://www.w3.org/2000/svg">
<path d="M103.758 10.7834L108.598 7.16602H92.3887V28.8374H108.598V25.217H97.0186V19.6857H106.915V16.0683H97.0186V10.7834H103.758Z" fill="#21A038"/>
<path d="M80.1418 15.6056H74.5264V10.7834H83.5098L88.3531 7.16602H69.8965V28.8374H79.5439C84.949 28.8374 88.0706 26.3527 88.0706 22.0262C88.0706 17.877 85.2644 15.6056 80.1418 15.6056ZM79.3696 25.217H74.5264V19.223H79.3696C82.317 19.223 83.6841 20.2175 83.6841 22.2395C83.6841 24.2615 82.2119 25.217 79.3696 25.217Z" fill="#21A038"/>
<path d="M121.72 7.16602H112.914V28.8374H117.544V22.6992H121.756C127.369 22.6992 130.878 19.7218 130.878 14.9326C130.878 10.1435 127.369 7.16602 121.72 7.16602ZM121.615 19.0818H117.511V10.7834H121.615C124.599 10.7834 126.212 12.2736 126.212 14.9326C126.212 17.5916 124.599 19.0818 121.615 19.0818Z" fill="#21A038"/>
<path d="M61.9659 24.1527C60.74 24.8287 59.37 25.1832 57.9669 25.1832C53.7907 25.1832 50.7742 22.1667 50.7742 18.0175C50.7742 13.8683 53.7907 10.8518 57.9669 10.8518C59.4752 10.8188 60.9504 11.3145 62.1762 12.2008L65.5112 9.71912L65.3009 9.50581C63.372 7.76621 60.7731 6.87988 57.8257 6.87988C54.6349 6.87988 51.7206 7.97952 49.6174 9.96549C47.5113 12.0236 46.3185 14.8959 46.3876 17.8763C46.3516 20.8898 47.5113 23.7982 49.6174 25.9253C51.8257 28.0195 54.7731 29.1912 57.7926 29.1191C61.1246 29.1191 64.036 27.9473 66.0009 25.8202L63.0205 23.5848L61.9659 24.1527Z" fill="#21A038"/>
<path d="M186.562 7.20207V28.8704H191.192V20.0042H201.053V28.8704H205.686V7.20207H201.053V16.1044H191.192V7.20207H186.562ZM178.597 28.8704H183.474L174.421 7.20207H169.719L160.492 28.8704H165.158L167.018 24.5079H176.843L178.597 28.8704ZM168.421 20.8905L172 12.2015L175.368 20.8905H168.421ZM216.072 20.1124H218.948L226.035 28.8374H231.999L222.526 17.6276L230.806 7.16602H225.509L218.632 16.4589H216.072V7.16602H211.439V28.8374H216.072V20.1124ZM145.193 15.6417V10.8195H157.299V7.20207H140.561V28.8704H150.211C155.613 28.8704 158.738 26.3887 158.738 22.0623C158.738 17.9131 155.932 15.6417 150.806 15.6417H145.193ZM145.193 25.253V19.2591H150.037C152.981 19.2591 154.351 20.2536 154.351 22.2756C154.351 24.2976 152.912 25.2891 150.037 25.2891H145.193V25.253Z" fill="#21A038"/>
<path d="M31.8958 7.02441C32.737 8.12406 33.4401 9.32886 34.035 10.6058L17.8257 22.6988L11.0176 18.3724V13.1956L17.7897 17.486L31.8958 7.02441Z" fill="#21A038"/>
<path d="M4.10413 18.0181C4.10413 17.7687 4.10413 17.5584 4.14018 17.309L0.0360538 17.0957C0.0360538 17.3811 0 17.6996 0 17.982C0 22.9484 2.00099 27.4522 5.22781 30.715L8.13916 27.7706C5.64844 25.2889 4.10413 21.8488 4.10413 18.0181Z" fill="url(#paint0_linear_2066_188)"/>
<path d="M17.7903 4.18533C18.0366 4.18533 18.247 4.18533 18.4933 4.22138L18.7036 0.0721859C18.4212 0.0721859 18.1057 0.0361328 17.8263 0.0361328C12.914 0.0361328 8.45834 2.05815 5.22852 5.32103L8.13986 8.26542C10.5975 5.74766 14.0347 4.18533 17.7903 4.18533Z" fill="url(#paint1_linear_2066_188)"/>
<path d="M17.7903 31.8506C17.5439 31.8506 17.3336 31.8506 17.0873 31.8145L16.877 35.9637C17.1594 35.9637 17.4748 35.9998 17.7543 35.9998C22.6666 35.9998 27.1253 33.9778 30.3521 30.7149L27.4407 27.7705C24.9831 30.3243 21.579 31.8506 17.7903 31.8506Z" fill="url(#paint2_linear_2066_188)"/>
<path d="M25.5095 6.59786L28.9827 4.00799C25.9302 1.52628 22.0364 0 17.791 0V4.1492C20.6693 4.18525 23.3343 5.07158 25.5095 6.59786Z" fill="url(#paint3_linear_2066_188)"/>
<path d="M35.6143 18.0178C35.6143 16.9182 35.5092 15.8546 35.3319 14.791L31.5072 17.6633C31.5072 17.7685 31.5072 17.9127 31.5072 18.0178C31.5072 22.0979 29.7526 25.7514 26.9824 28.2691L29.7526 31.3548C33.3339 28.0919 35.6143 23.3027 35.6143 18.0178Z" fill="#21A038"/>
<path d="M17.7904 31.8512C13.7553 31.8512 10.1409 30.0786 7.65022 27.2754L4.59766 30.0786C7.86053 33.732 12.5626 36.0004 17.7904 36.0004V31.8512Z" fill="url(#paint4_linear_2066_188)"/>
<path d="M8.63189 7.76725L5.85875 4.68164C2.24435 7.98057 0 12.7337 0 18.0186H4.10413C4.10413 13.9745 5.85875 10.288 8.63189 7.76725Z" fill="url(#paint5_linear_2066_188)"/>
<defs>
<linearGradient id="paint0_linear_2066_188" x1="4.79015" y1="30.2106" x2="0.57504" y2="17.9713" gradientUnits="userSpaceOnUse">
<stop offset="0.1444" stop-color="#F2E913"/>
<stop offset="0.3037" stop-color="#E7E518"/>
<stop offset="0.5823" stop-color="#CADB26"/>
<stop offset="0.891" stop-color="#A3CD39"/>
</linearGradient>
<linearGradient id="paint1_linear_2066_188" x1="6.39916" y1="4.85263" x2="17.0493" y2="0.775665" gradientUnits="userSpaceOnUse">
<stop offset="0.0592" stop-color="#0FA8E0"/>
<stop offset="0.5385" stop-color="#0099F9"/>
<stop offset="0.9234" stop-color="#0291EB"/>
</linearGradient>
<linearGradient id="paint2_linear_2066_188" x1="16.6372" y1="32.4708" x2="29.3275" y2="29.5898" gradientUnits="userSpaceOnUse">
<stop offset="0.1226" stop-color="#A3CD39"/>
<stop offset="0.2846" stop-color="#86C339"/>
<stop offset="0.8693" stop-color="#21A038"/>
</linearGradient>
<linearGradient id="paint3_linear_2066_188" x1="16.9477" y1="2.64377" x2="27.5013" y2="5.91482" gradientUnits="userSpaceOnUse">
<stop offset="0.0566" stop-color="#0291EB"/>
<stop offset="0.79" stop-color="#0C8ACB"/>
</linearGradient>
<linearGradient id="paint4_linear_2066_188" x1="5.64128" y1="30.735" x2="16.9796" y2="34.9907" gradientUnits="userSpaceOnUse">
<stop offset="0.1324" stop-color="#F2E913"/>
<stop offset="0.2977" stop-color="#EBE716"/>
<stop offset="0.5306" stop-color="#D9E01F"/>
<stop offset="0.8023" stop-color="#BBD62D"/>
<stop offset="0.9829" stop-color="#A3CD39"/>
</linearGradient>
<linearGradient id="paint5_linear_2066_188" x1="3.14568" y1="18.5199" x2="7.70199" y2="6.61357" gradientUnits="userSpaceOnUse">
<stop offset="0.0698" stop-color="#A3CD39"/>
<stop offset="0.2599" stop-color="#81C55F"/>
<stop offset="0.9216" stop-color="#0FA8E0"/>
</linearGradient>
</defs>
</svg>
